<svg xmlns="http://www.w3.org/2000/svg" width="18" height="18" viewBox="0 0 18 18" fill="none">
                                <g clip-path="url(#clip0_3_4134)">
                                  <path d="M9 18C13.9704 18 18 13.9704 18 9C18 4.02963 13.9704 0 9 0C4.02963 0 0 4.02963 0 9C0 13.9704 4.02963 18 9 18Z" fill="#FF5722"></path>
                                  <path d="M9 15.0546C4.51421 15.0546 0.805737 11.6496 0.122684 7.20001C0.0492631 7.6811 0 8.17054 0 8.67274C0 13.8238 4.02963 18 9 18C13.9704 18 18 13.8238 18 8.67274C18 8.17054 17.9507 7.6811 17.8773 7.20001C17.1943 11.6496 13.4858 15.0546 9 15.0546Z" fill="#E64A19"></path>
                                  <path d="M15.9735 14.6871C15.0006 13.5947 14.3118 11.6645 14.2242 9.47368H17.9763C17.9844 9.31595 18 9.16011 18 9C18 8.8399 17.9844 8.68405 17.9763 8.52632H14.2242C14.3118 6.33553 15.0006 4.40526 15.9735 3.31295C15.7746 3.06947 15.5643 2.83642 15.3416 2.61521C14.1687 3.88232 13.3691 6.04279 13.2777 8.52632H9.47393V0.0236843C9.31619 0.0156317 9.16035 0 9.00024 0C8.84013 0 8.68428 0.0156317 8.52654 0.0236843V8.52632H4.72276C4.63133 6.04279 3.83173 3.88232 2.65886 2.61521C2.43622 2.83642 2.22543 3.06947 2.02695 3.31295C2.99992 4.40526 3.68868 6.33553 3.77631 8.52632H0.0236849C0.0156321 8.68405 0 8.8399 0 9C0 9.16011 0.0156321 9.31595 0.0236849 9.47368H3.77584C3.6882 11.6645 2.99945 13.5947 2.02647 14.6871C2.22543 14.9305 2.43575 15.1636 2.65839 15.3848C3.83079 14.1172 4.63039 11.9572 4.72181 9.47368H8.52654V17.9763C8.68428 17.9844 8.84013 18 9.00024 18C9.16035 18 9.31619 17.9844 9.47393 17.9763V9.47368H13.2777C13.3691 11.9572 14.1687 14.1177 15.3416 15.3848C15.5643 15.1636 15.7746 14.9305 15.9735 14.6871Z" fill="#263238"></path>
                                </g>
                                <defs>
                                  <clipPath id="clip0_3_4134">
                                    <rect width="18" height="18" fill="white"></rect>
                                  </clipPath>
                                </defs>
                              </svg>