<svg xmlns="http://www.w3.org/2000/svg" width="18" height="18" viewBox="0 0 18 18" fill="none">
                                <g clip-path="url(#clip0_3_4051)">
                                  <path d="M9 0C4.02963 0 0 4.02963 0 9C0 13.9704 4.02963 18 9 18C13.9704 18 18 13.9704 18 9C18 4.02963 13.9704 0 9 0Z" fill="white"></path>
                                  <path d="M9 15.1364C4.51421 15.1364 0.805737 11.826 0.122684 7.5C0.0492631 7.96773 0 8.44357 0 8.93182C0 13.9398 4.02963 18 9 18C13.9704 18 18 13.9398 18 8.93182C18 8.44357 17.9507 7.96773 17.8773 7.5C17.1943 11.826 13.4858 15.1364 9 15.1364Z" fill="#E1E9ED"></path>
                                  <path d="M9.00041 5.10776L5.21094 7.86081L6.65852 12.3158H11.3423L12.7899 7.86081L9.00041 5.10776Z" fill="#37474F"></path>
                                  <path d="M5.90234 0.559421L9.00119 2.15479L12.1 0.559421C11.1328 0.203684 10.0921 0 9.00119 0C7.91029 0 6.86961 0.203684 5.90234 0.559421Z" fill="#37474F"></path>
                                  <path d="M16.0706 3.44461L15.5107 6.88498L17.9857 9.33914C18.0246 8.30935 17.8972 7.25635 17.5599 6.21898C17.2231 5.18161 16.7077 4.25461 16.0706 3.44461Z" fill="#37474F"></path>
                                  <path d="M0.0155442 9.33914L2.49054 6.88498L1.93065 3.44461C1.29354 4.25508 0.778176 5.18161 0.440913 6.21898C0.103649 7.25635 -0.0232979 8.30887 0.0155442 9.33914Z" fill="#37474F"></path>
                                  <path d="M6.54665 17.6504L4.97733 14.5383L1.53223 14.0078C2.10586 14.8642 2.82823 15.6406 3.7107 16.282C4.59317 16.9233 5.55475 17.3691 6.54665 17.6504Z" fill="#37474F"></path>
                                  <path d="M16.4695 14.0073L13.0244 14.5378L11.4551 17.6499C12.4465 17.369 13.4086 16.9219 14.291 16.281C15.1735 15.6401 15.8954 14.8632 16.4695 14.0073Z" fill="#37474F"></path>
                                </g>
                                <defs>
                                  <clipPath id="clip0_3_4051">
                                    <rect width="18" height="18" fill="white"></rect>
                                  </clipPath>
                                </defs>
                            </svg>