<svg xmlns="http://www.w3.org/2000/svg" width="18" height="18" viewBox="0 0 18 18" fill="none">
                                <path fill-rule="evenodd" clip-rule="evenodd" d="M12.0005 8.92538C12.0005 8.06738 11.7132 7.27864 11.2293 6.64705C10.9774 6.31825 11.0397 5.84749 11.3685 5.59556C11.6973 5.34364 12.168 5.40595 12.42 5.73474C13.0975 6.61897 13.5005 7.72621 13.5005 8.92538C13.5005 10.1752 13.0628 11.3249 12.333 12.2264C12.0724 12.5484 11.6001 12.5981 11.2781 12.3375C10.9562 12.0769 10.9064 11.6046 11.1671 11.2827C11.6886 10.6384 12.0005 9.81931 12.0005 8.92538Z" fill="#FF0B0B"></path>
                                <path fill-rule="evenodd" clip-rule="evenodd" d="M6 8.92537C6 8.06625 6.28798 7.27656 6.77306 6.64456C7.02526 6.31597 6.96334 5.84515 6.63476 5.59295C6.30617 5.34075 5.83536 5.40267 5.58316 5.73125C4.90403 6.61606 4.5 7.72462 4.5 8.92537C4.5 10.1742 4.937 11.323 5.66578 12.2243C5.92622 12.5464 6.39846 12.5964 6.72055 12.3359C7.04264 12.0755 7.09261 11.6032 6.83217 11.2812C6.31138 10.6371 6 9.81862 6 8.92537Z" fill="#FF0B0B"></path>
                                <path fill-rule="evenodd" clip-rule="evenodd" d="M7.5 8.92522C7.5 9.75367 8.17155 10.4252 9 10.4252C9.82845 10.4252 10.5 9.75367 10.5 8.92522C10.5 8.09684 9.82845 7.42523 9 7.42523C8.17155 7.42523 7.5 8.09684 7.5 8.92522Z" fill="#FF8B8B"></path>
                                <path fill-rule="evenodd" clip-rule="evenodd" d="M15 8.92522C15 7.25119 14.3916 5.72117 13.3828 4.54135C13.1137 4.22652 13.1507 3.7531 13.4655 3.48392C13.7804 3.21475 14.2537 3.25175 14.5229 3.56659C15.7552 5.0078 16.5 6.88048 16.5 8.92522C16.5 11.017 15.7205 12.9286 14.4373 14.3824C14.1632 14.693 13.6892 14.7226 13.3787 14.4484C13.0682 14.1743 13.0386 13.7004 13.3127 13.3898C14.3633 12.1995 15 10.6376 15 8.92522Z" fill="#FF8B8B"></path>
                                <path fill-rule="evenodd" clip-rule="evenodd" d="M3 8.9253C3 7.25138 3.60836 5.72145 4.61696 4.54166C4.88612 4.22682 4.84909 3.75339 4.53425 3.48423C4.21941 3.21507 3.74598 3.2521 3.47682 3.56694C2.24474 5.00812 1.5 6.8807 1.5 8.9253C1.5 11.0143 2.27737 12.9235 3.55751 14.3767C3.83132 14.6875 4.30524 14.7175 4.61606 14.4437C4.92686 14.1698 4.95686 13.6959 4.68306 13.3851C3.63495 12.1954 3 10.6354 3 8.9253Z" fill="#FF8B8B"></path>
                              </svg>