<svg width="46" height="46" viewBox="0 0 46 46" fill="none" xmlns="http://www.w3.org/2000/svg"><g clip-path="url(#clip0_11_1867)" filter="url(#filter0_d_11_1867)"><rect x="14.25" y="10.25" width="17.5" height="17.5" rx="4" fill="url(#paint0_linear_11_1867)"></rect><path d="M23 4C14.7158 4 8 10.7157 8 19C8 27.2843 14.7158 34 23 34C31.2842 34 38 27.2843 38 19C38 10.7157 31.2842 4 23 4ZM28.1844 19.7951L20.6844 24.4826C20.5326 24.5774 20.3601 24.625 20.1875 24.625C20.0312 24.625 19.8746 24.5861 19.7329 24.5073C19.4349 24.3421 19.25 24.0285 19.25 23.6875V14.3125C19.25 13.9715 19.4349 13.6579 19.7329 13.4927C20.0309 13.3265 20.3953 13.3366 20.6844 13.5174L28.1844 18.2049C28.4584 18.3766 28.625 18.6769 28.625 19C28.625 19.3231 28.4584 19.6235 28.1844 19.7951Z" fill="white"></path></g><defs><filter id="filter0_d_11_1867" x="0" y="0" width="46" height="46" filterUnits="userSpaceOnUse" color-interpolation-filters="sRGB"><feFlood flood-opacity="0" result="BackgroundImageFix"></feFlood><feColorMatrix in="SourceAlpha" type="matrix" values="0 0 0 0 0 0 0 0 0 0 0 0 0 0 0 0 0 0 127 0" result="hardAlpha"></feColorMatrix><feOffset dy="4"></feOffset><feGaussianBlur stdDeviation="4"></feGaussianBlur><feColorMatrix type="matrix" values="0 0 0 0 0 0 0 0 0 0 0 0 0 0 0 0 0 0 0.05 0"></feColorMatrix><feBlend mode="normal" in2="BackgroundImageFix" result="effect1_dropShadow_11_1867"></feBlend><feBlend mode="normal" in="SourceGraphic" in2="effect1_dropShadow_11_1867" result="shape"></feBlend></filter><linearGradient id="paint0_linear_11_1867" x1="13.8179" y1="10.25" x2="36.7084" y2="12.7002" gradientUnits="userSpaceOnUse"><stop stop-color="#008360"></stop><stop offset="1" stop-color="#49EC44"></stop></linearGradient><clipPath id="clip0_11_1867"><rect width="30" height="30" fill="white" transform="translate(8 4)"></rect></clipPath></defs></svg>